<svg width="34" height="34" viewBox="0 0 34 34" fill="none" xmlns="http://www.w3.org/2000/svg">
<g filter="url(#filter0_d_481_296)">
<circle cx="17" cy="17" r="16" fill="#1C1C1E"/>
</g>
<path d="M20.6987 9.00333L18.7799 9C16.6242 9 15.231 10.5455 15.231 12.9376V14.7531H13.3017C13.135 14.7531 13 14.8993 13 15.0795V17.71C13 17.8903 13.1352 18.0363 13.3017 18.0363H15.231V24.6738C15.231 24.854 15.366 25 15.5327 25H18.0499C18.2166 25 18.3517 24.8539 18.3517 24.6738V18.0363H20.6075C20.7742 18.0363 20.9092 17.8903 20.9092 17.71L20.9101 15.0795C20.9101 14.993 20.8782 14.9101 20.8217 14.8488C20.7652 14.7876 20.6883 14.7531 20.6082 14.7531H18.3517V13.2141C18.3517 12.4744 18.5147 12.0989 19.4058 12.0989L20.6984 12.0984C20.865 12.0984 21 11.9522 21 11.7721V9.32958C21 9.14964 20.8652 9.00366 20.6987 9.00333Z" fill="white"/>
<defs>
<filter id="filter0_d_481_296" x="0" y="0" width="34" height="34" filterUnits="userSpaceOnUse" color-interpolation-filters="sRGB">
<feFlood flood-opacity="0" result="BackgroundImageFix"/>
<feColorMatrix in="SourceAlpha" type="matrix" values="0 0 0 0 0 0 0 0 0 0 0 0 0 0 0 0 0 0 127 0" result="hardAlpha"/>
<feMorphology radius="1" operator="dilate" in="SourceAlpha" result="effect1_dropShadow_481_296"/>
<feOffset/>
<feColorMatrix type="matrix" values="0 0 0 0 1 0 0 0 0 1 0 0 0 0 1 0 0 0 1 0"/>
<feBlend mode="normal" in2="BackgroundImageFix" result="effect1_dropShadow_481_296"/>
<feBlend mode="normal" in="SourceGraphic" in2="effect1_dropShadow_481_296" result="shape"/>
</filter>
</defs>
</svg>
